<svg width="120" height="79" viewBox="0 0 120 79" fill="none" xmlns="http://www.w3.org/2000/svg">
<path d="M114.807 73.7468L119.514 74.442C120.548 75.1138 119.749 76.5794 118.819 76.8472C99.2631 76.617 79.6179 76.1989 60.0574 76.5465C58.4508 76.5747 54.9793 77.796 53.9553 76.119C53.4996 75.3721 53.9458 74.2212 54.4438 74.2212H64.0738V49.0894L64.7784 48.3847H77.9315L78.6361 49.0894V73.5166C79.3972 74.5782 80.7829 74.1883 81.9244 74.2212V37.3455L82.6291 36.6409H95.7822L96.4868 37.3455V73.5166C97.3981 74.6158 99.404 74.5688 100.245 73.5166V23.2528L100.949 22.5482H114.103L114.807 23.2528V73.7515V73.7468ZM103.063 74.2165H111.284L111.989 73.5119V26.0667L111.284 25.362H103.063V74.2165ZM93.6683 39.4547H85.4476L84.743 40.1593V73.5119L85.4476 74.2165H93.6683V39.4547ZM75.8176 51.6683H66.8923V73.5119L67.5969 74.2165H75.113L75.8176 73.5119V51.6683Z" fill="white"/>
<path d="M30.2561 33.3477C42.7845 27.5416 54.425 30.0876 56.9711 44.9131C58.7796 55.4215 52.7245 73.2628 41.8497 77.1242C34.6906 79.6656 33.629 75.5693 29.077 75.5787C26.8128 75.5787 24.5392 77.4953 22.3924 77.8617C11.1136 79.7877 3.11839 65.6481 0.891755 56.3657C-3.58031 37.754 9.30976 24.507 27.4329 33.343C27.5175 29.7024 25.878 25.6297 23.6702 22.783C23.0736 22.0173 16.9808 17.0989 19.7618 16.4037C22.5427 15.7084 26.329 21.4629 27.4 23.652L28.3771 23.9479C29.3683 18.1559 32.4123 14.1536 38.0024 12.1947C40.8773 11.1894 42.7892 10.0103 43.367 13.8905C44.5789 22.0407 38.7681 30.0783 30.2373 29.8011L30.2608 33.343L30.2561 33.3477ZM40.586 14.5576C33.784 15.2904 30.1434 21.7918 29.7864 28.1804C36.7246 27.7295 41.488 21.4019 40.586 14.5576ZM41.441 33.0048C36.6213 33.2303 32.0459 36.8051 29.0019 36.9695C25.9579 37.134 21.002 32.5398 14.5522 33.39C-4.86273 35.9361 3.17476 69.3967 16.7695 74.7801C23.1863 77.3215 24.8398 72.84 29.0676 72.7883C31.6983 72.7555 34.8879 75.7995 38.3406 75.5317C48.0081 74.7801 54.378 58.8319 54.6974 50.5126C55.0075 42.461 50.8314 32.5632 41.441 33.0048Z" fill="white"/>
<path d="M107.291 0L105.412 12.6787C103.589 13.0639 103.134 8.46027 102.363 8.46027C90.8497 20.2558 75.8411 29.106 59.3809 31.4689L59.658 30.0173C74.5821 25.6204 88.6841 17.2165 99.3053 5.86723C99.2959 5.41627 96.6935 4.22309 96.1673 3.86138C95.754 3.57483 95.2983 3.93654 95.552 2.81853L107.296 0H107.291Z" fill="white"/>
</svg>
