<svg width="101" height="87" viewBox="0 0 101 87" fill="none" xmlns="http://www.w3.org/2000/svg">
<mask id="mask0_44017_4" style="mask-type:luminance" maskUnits="userSpaceOnUse" x="19" y="5" width="63" height="78">
<path d="M19 5H82V83H19V5Z" fill="white"/>
</mask>
<g mask="url(#mask0_44017_4)">
<path d="M19.3305 70.31C19.771 68.8878 20.9826 67.5751 21.8637 66.1529C22.6347 64.9495 23.1854 63.7462 23.5158 62.5428C23.8462 61.4488 24.1766 60.3549 24.3969 59.1515C24.7273 57.6199 24.7273 56.3072 25.0578 54.338C24.9476 54.0098 24.7273 53.5723 24.6172 53.2441C22.3043 46.6803 20.7623 39.7882 19.8812 32.8962C19.1102 26.8794 18.8899 20.7532 19.3305 14.7363C19.4406 13.0954 19.5508 11.5638 19.8812 9.92287C19.9913 8.61011 20.3217 7.40675 20.7623 6.09398C20.8724 5.65639 21.0927 5.2188 21.4231 5.10941C21.9738 4.78122 22.7448 5.2188 22.9651 5.87519C23.1854 6.42217 23.1854 7.18795 23.0752 7.73494C22.6347 12.3296 22.5245 16.9243 22.7448 21.6284C23.1854 28.411 24.3969 35.0842 26.3794 41.5386C26.7099 42.6326 27.0403 43.7265 27.9214 44.3829C28.362 44.8205 29.0228 45.0393 29.5735 45.1487C34.0893 43.6171 39.0456 43.3983 43.7816 43.6171C48.7379 43.8359 53.6942 44.6017 58.6504 45.0393C59.5316 45.1487 60.633 45.1487 61.4039 44.6017C61.9546 44.2735 62.1749 43.7265 62.5053 43.1796C63.2763 41.8668 63.9372 40.554 64.598 39.1319C64.598 38.8037 64.598 38.5849 64.598 38.2567V38.1473C64.7081 36.8345 65.1487 35.6312 65.6994 34.4278C65.8095 34.0996 65.9197 33.8808 66.0298 33.5526C66.2501 33.2244 66.4704 32.8962 66.8008 32.5681C67.1312 31.2553 67.2414 29.8331 67.6819 28.5204C67.7921 28.1922 67.9022 27.9734 68.0123 27.6452C68.1225 27.4264 68.2326 27.2076 68.4529 27.0982C68.8935 27.864 69.2239 28.6298 69.5543 29.2861C69.6644 28.6298 69.8847 27.9734 70.105 27.4264C70.2151 27.2076 70.3253 26.9888 70.5456 26.8794C71.3165 28.1922 71.8672 29.6143 72.5281 31.0365C72.8585 31.0365 73.0788 31.0365 73.4092 31.1459C74.2903 31.2553 74.841 31.4741 75.3917 31.8023C76.6032 32.5681 77.5945 33.7714 78.806 34.5372C79.4669 34.8654 80.1277 35.1936 80.7886 35.5218C81.0088 35.6312 81.2291 35.85 81.3393 36.0688C81.4494 36.1782 81.4494 36.1782 81.5595 36.2875C81.7798 36.6157 82.0001 36.9439 82.0001 37.2721C82.0001 37.4909 82.0001 37.7097 82.0001 37.9285C82.0001 38.0379 82.0001 38.1473 82.0001 38.2567V38.3661C81.89 38.9131 81.7798 39.4601 81.5595 39.8976C81.3393 40.4446 81.119 40.8822 80.6784 41.2104C80.2379 41.5386 79.6872 41.7574 79.2466 41.8668C77.8148 42.4138 76.2728 42.742 74.7309 43.1796C74.5106 45.5863 74.4005 48.3212 74.1802 50.7279C74.07 51.8219 73.9599 52.9159 73.8498 54.0098C73.6295 55.7602 73.2991 57.4012 72.5281 58.9327C72.3078 59.2609 72.1977 59.5891 71.9774 59.9173C71.7571 60.9019 71.647 61.777 71.4267 62.7616C71.2064 63.7462 71.0963 64.7307 70.876 65.7153C70.4354 68.3408 69.9949 71.0758 69.8847 73.8107C69.8847 74.2483 69.8847 74.7953 69.9949 75.2328C70.105 75.561 70.3253 75.9986 70.5456 76.3268C70.9861 77.0926 71.4267 77.9678 71.8672 78.7336C71.9774 78.9524 72.0875 79.0618 72.1977 79.1711C72.3078 79.3899 72.6382 79.3899 72.9686 79.4993C73.9599 79.7181 74.9511 80.7027 75.2816 81.6873C75.3917 81.9061 75.3917 82.0155 75.2816 82.1249C75.1714 82.2343 75.0613 82.2343 74.9511 82.2343C73.7396 82.3437 72.4179 82.3437 71.2064 82.3437C70.876 82.3437 70.6557 82.3437 70.3253 82.1249C70.105 82.0155 69.7746 81.7967 69.5543 81.5779C68.7833 80.7027 68.1225 79.7181 67.4616 78.7336C66.6907 77.6396 66.0298 76.5456 65.2588 75.4517C65.0386 75.1235 64.8183 74.7953 64.7081 74.4671C64.598 74.7953 64.598 75.1235 64.598 75.4517C64.598 75.7798 64.7081 76.108 64.8183 76.4362C64.9284 76.7644 65.0386 76.9832 65.1487 77.3114C65.369 77.749 65.4791 78.296 65.6994 78.7336C65.8095 78.9524 65.8095 79.0618 65.9197 79.1711C66.14 79.3899 66.4704 79.4993 66.8008 79.4993C67.7921 79.7181 68.563 80.5933 68.6732 81.5779C68.6732 81.6873 68.6732 81.9061 68.563 82.0155C68.4529 82.1249 68.3428 82.1249 68.1225 82.1249C66.9109 82.2343 65.5893 82.2343 64.3777 82.1249C64.0473 82.1249 63.827 82.1249 63.6067 82.0155C63.3865 81.9061 63.1662 81.6873 62.9459 81.4685C62.2851 80.7027 61.8445 79.7181 61.4039 78.8429C60.8532 77.749 60.4127 76.7644 59.862 75.6704C59.6417 75.2328 59.4214 74.7953 59.3113 74.2483C59.2011 73.5919 59.3113 73.0449 59.3113 72.3885C59.4214 71.6227 59.5316 70.9664 59.5316 70.2006C59.5316 69.9818 59.5316 69.763 59.6417 69.6536C59.7518 69.216 59.7518 68.7784 59.7518 68.2314C59.862 67.0281 60.0823 65.8247 59.862 64.6213C56.6679 64.512 53.4739 63.7462 50.2798 62.871C46.7553 61.9958 43.2309 61.0113 39.5963 61.0113C38.605 63.6368 36.9529 66.1529 34.8602 68.1221C34.5298 68.4502 34.0893 68.8878 33.6487 69.216C32.7676 69.9818 31.6662 70.7476 31.1155 71.7321C30.1242 73.4825 30.4546 75.6704 30.8952 77.6396C30.8952 77.749 30.8952 77.8584 31.0053 77.9678C31.1155 78.5148 31.3358 79.1711 31.7763 79.6087C32.4372 80.2651 33.6487 80.7027 33.4284 81.6873C33.3183 82.3437 32.4372 82.5624 31.7763 82.6718C30.5648 82.7812 29.2431 82.8906 28.2518 82.1249C27.7011 81.6873 27.4808 81.1403 27.1504 80.5933C27.0403 80.2651 26.9301 79.8275 26.82 79.4993C26.2693 77.4208 25.6085 75.3422 25.0578 73.2637C24.9476 72.9355 24.8375 72.6073 24.8375 72.2791C23.6259 73.9201 23.5158 75.9986 23.4057 77.8584C23.4057 78.5148 23.4057 79.2805 23.7361 79.8275C24.1766 80.4839 25.278 80.9215 24.8375 81.9061C24.5071 82.5625 23.8462 82.7812 23.1854 82.8906C21.9738 83 20.542 83.1094 19.771 82.3437C19.1102 81.6873 19.1102 80.7027 19.0001 79.6087C18.8899 77.5302 18.8899 75.4516 18.7798 73.3731C19.0001 72.3885 19.0001 71.2946 19.3305 70.31Z" fill="#CDC1B2"/>
</g>
</svg>
