<svg width="101" height="87" viewBox="0 0 101 87" fill="none" xmlns="http://www.w3.org/2000/svg">
<g clip-path="url(#clip0_44017_11)">
<mask id="mask0_44017_11" style="mask-type:luminance" maskUnits="userSpaceOnUse" x="0" y="0" width="101" height="87">
<path d="M101 0H0V87H101V0Z" fill="white"/>
</mask>
<g mask="url(#mask0_44017_11)">
<path d="M77.6808 86.543C73.7437 86.3906 69.5039 85.6288 66.1725 83.3433C65.7182 84.2575 65.1125 85.0193 64.204 85.4764C64.0526 85.4764 64.0526 85.6288 63.9012 85.6288C63.7497 85.6288 63.7497 85.7811 63.5983 85.7811C63.5983 85.7811 63.5983 85.7811 63.4469 85.7811C62.9926 85.9335 62.5383 85.9335 62.0841 85.9335H58.147H40.4304H37.099C35.7362 85.9335 34.5248 85.9335 34.5248 85.9335C31.3449 85.4764 33.4649 80.9055 38.159 81.0578L43.6103 81.3626H43.7617C39.0676 78.7724 36.0391 74.5062 36.0391 69.3258C36.0391 67.6498 36.3419 66.1261 36.9476 64.6025H36.7962C36.3419 64.4501 35.8877 64.2978 35.4334 63.993L35.282 65.5167L35.1305 67.0403C34.0706 69.1734 33.3134 77.2487 33.0106 80.6007C33.162 83.0386 33.0106 85.9335 28.7707 86.0859H26.4994C24.9851 85.9335 24.228 85.6288 23.9251 85.0193C23.4709 84.2575 24.0766 83.1909 24.8337 82.4291C25.7422 81.5149 26.9536 81.0578 27.7107 80.296C27.7107 76.6393 27.8622 67.9545 27.5593 66.4309L25.7422 59.2697V58.3556C24.9851 57.7461 24.3794 57.1366 23.6223 56.5272L12.4169 55.0035C12.114 56.3748 11.5083 57.8985 11.2055 59.1174C10.7512 60.9458 11.8112 62.0123 11.5083 63.0789C10.297 67.6498 5.6028 69.9352 5.14853 66.4309C5.14853 65.9738 5.14853 65.3643 5.14853 64.6025L6.35992 59.2697L6.66277 57.7461C6.81419 56.9843 7.57131 54.2417 8.17701 51.9563C8.63128 50.2803 9.9941 49.2137 11.5083 49.0613C12.4169 48.909 13.3254 48.909 14.234 48.909L17.4139 48.7566C17.2625 48.6042 17.111 48.2995 17.111 48.1472L16.9596 47.9948C16.3539 46.9282 15.7482 45.7093 15.4454 44.338C14.8397 42.2049 14.5368 39.9195 14.8397 37.634C14.9911 36.8722 15.1425 36.1104 15.294 35.3486C15.1425 34.5867 14.9911 33.8249 14.8397 32.9107C14.6883 32.1489 14.6883 31.2347 14.6883 30.1682C14.6883 26.3591 17.4139 23.3118 16.0511 21.9405C14.8397 20.2645 13.6283 20.874 10.5998 21.6358C9.9941 21.7881 9.53983 21.7881 8.93413 21.7881C8.78271 21.7881 8.47986 21.7881 8.32844 21.7881C8.17701 21.7881 8.02559 21.7881 7.87416 21.7881C6.81419 21.9405 5.75422 21.6358 4.84568 21.0263C4.23998 20.7216 3.78571 20.1121 3.33143 19.5027C3.33143 19.3503 3.18001 19.3503 3.18001 19.1979C3.02859 19.0456 3.02859 18.8932 2.87716 18.7409L1.06007 15.9983L0.151524 14.4747C-0.151325 13.7128 0.151524 12.951 0.757221 12.4939L2.57431 11.5797L6.51134 9.29429L7.11704 8.98956C8.17701 8.3801 9.69125 7.00882 9.9941 5.94227L10.297 4.87572C10.297 4.57099 10.4484 4.26626 10.5998 3.96154C13.0226 -0.914119 25.1365 -0.914118 28.0136 3.04735C28.3164 3.04735 28.4679 3.50444 28.7707 3.96154C30.285 7.16119 33.3134 15.5412 35.4334 20.874L36.6448 23.7689L41.0361 29.7111C42.8532 30.93 44.216 32.1489 45.5788 33.2155C47.0931 34.4344 48.4559 35.8056 49.8187 37.1769C51.1815 38.7006 52.5443 40.3766 54.0586 42.662L60.1155 51.3468C63.7497 56.6796 64.5068 58.8127 65.5668 63.6883C66.0211 64.9072 66.3239 66.1261 66.3239 67.3451C66.3239 67.4974 66.3239 67.6498 66.3239 67.8021C66.3239 69.3258 67.5353 74.5062 68.141 76.0298C68.8982 77.8582 70.4124 79.3818 72.0781 80.296C74.6523 81.8197 76.4694 81.3626 79.3464 82.1244C79.9521 82.2768 80.5578 82.4291 81.1635 82.4291C82.0721 82.4291 82.9806 82.5815 83.8892 82.7338C85.1006 82.8862 86.4634 82.8862 87.6748 83.0386C92.0661 83.3433 96.7602 83.9528 100.849 86.8477C100.091 86.8477 99.4859 86.8477 98.7287 87C91.7632 87.1524 84.7977 87 77.6808 86.543Z" fill="#CDC1B2"/>
</g>
</g>
<defs>
<clipPath id="clip0_44017_11">
<rect width="101" height="87" fill="white"/>
</clipPath>
</defs>
</svg>
