<svg width="120" height="109" viewBox="0 0 120 109" fill="none" xmlns="http://www.w3.org/2000/svg">
<path d="M78.824 19.2498L77.5142 22.9185C68.4697 21.2797 60.586 16.0653 52.5472 11.9186C39.8402 19.9265 25.631 26.072 10.5713 27.9653C10.1058 55.6947 15.885 85.305 41.7832 100.048C43.8565 101.228 50.0517 104.369 52.1064 104.648C56.4021 105.231 70.0216 96.1622 73.5351 93.0956C86.1614 82.0957 92.6607 63.5846 93.7222 47.1717H98.0738C95.9011 67.812 88.781 87.2853 71.5735 99.8246C68.0972 102.357 55.9676 109.477 52.1064 108.975C46.3892 108.236 34.632 100.694 30.1129 96.8202C9.42912 79.0664 6.53017 50.9086 6.15771 25.2091C22.8562 21.9253 38.6918 16.1771 53.0686 7.04565C61.2689 11.7696 69.4008 17.1765 78.824 19.2498Z" fill="white"/>
<path d="M76.8998 29.8525L76.037 32.8818L52.4791 22.962C42.429 28.4123 31.7767 33.037 20.5347 35.4455C20.2802 56.8618 26.0781 80.3576 46.1287 91.3637C53.1371 95.2124 53.6772 94.84 60.6173 90.743C78.2034 80.3514 84.4731 59.14 85.038 39.735H87.5148C87.8935 61.4492 77.8868 88.6075 55.8498 96.5222C51.4983 98.0866 49.0401 96.3981 45.1169 94.2441C22.7819 81.9592 17.4806 56.5887 17.3999 32.9377C29.9517 31.1126 41.2247 25.2588 52.4915 19.8831L76.8998 29.8649V29.8525Z" fill="white"/>
<path d="M57.0977 40.3495V53.3855H70.1337V62.0761H57.0977V75.1121H48.4071V62.0761H35.3711V53.3855H48.4071V40.3495H57.0977Z" fill="white"/>
<path d="M99.3095 15.519V24.8305H108.621V30.4173H99.3095V40.3495L93.7165 40.3557L93.493 31.3236L92.7916 30.4173H83.7905V24.8305H93.1019V15.519H99.3095Z" fill="white"/>
<path d="M9.29279 0C9.21209 2.06093 10.795 4.12807 12.378 5.30131C13.9609 6.47455 16.2205 6.56765 17.3689 8.06368C11.6765 8.46097 10.8509 12.3221 8.06989 16.1398L5.84757 10.5964L0 7.45535C3.48247 6.4373 7.57948 4.38878 8.06368 0.403491L9.29899 0H9.29279Z" fill="white"/>
<path d="M111.718 63.9385L113.798 68.6936L119.795 72.0022C114.586 72.7285 113.835 74.5039 111.787 78.5761C111.458 79.2341 112.109 79.7431 110.496 79.4513L107.969 74.2059L102.419 71.3877C107.659 70.1275 108.18 69.035 110.433 64.8138C110.762 64.1992 110.092 63.6219 111.718 63.9261V63.9385Z" fill="white"/>
</svg>
