<svg width="99" height="71" viewBox="0 0 99 71" fill="none" xmlns="http://www.w3.org/2000/svg">
<g clip-path="url(#clip0_44017_21)">
<path d="M98.8208 9.81625C99.27 9.20897 98.8208 8.29804 98.0721 8.14622C97.6229 7.9944 97.1738 7.84258 96.7246 7.69076C94.1792 6.77984 92.5322 6.32437 90.5857 5.56527C88.3398 4.65434 88.9387 2.37703 86.8425 1.31429C85.7944 0.858827 84.4468 0.403364 83.0993 0.251543C82.5004 0.0997226 81.9015 0.099725 81.3025 0.099725C79.6555 -0.0520957 78.0085 -0.0520981 76.5112 0.251543C75.1637 0.403364 73.8161 1.16247 72.9178 2.22521L69.474 3.89524C67.827 5.10981 68.2762 7.08348 69.0248 8.90533C66.4794 11.9417 64.0838 14.8263 61.6881 17.1036C60.9395 17.8627 60.0411 18.6219 59.2925 19.2291C58.993 19.2291 58.6935 19.2291 58.3941 19.2291C56.1482 19.0773 53.7525 19.381 51.3569 19.9882C51.0574 20.1401 50.7579 20.1401 50.3088 20.1401C48.2126 20.5955 46.1164 20.4437 43.8704 20.4437C43.1218 20.4437 42.3731 20.2919 41.6245 20.2919C41.4748 20.2919 41.1753 20.2919 41.0256 20.2919C36.8332 20.1401 33.9884 19.8364 31.443 19.8364C30.9938 19.8364 30.5446 19.8364 30.0954 19.8364C28.5981 19.8364 27.2506 19.9882 25.4538 20.2919H25.3041C25.1544 20.2919 25.0046 20.2919 24.8549 20.2919C24.256 20.2919 23.5074 20.2919 22.9085 20.2919C22.609 20.2919 22.4593 20.2919 22.1598 20.2919C21.1117 20.2919 20.2133 20.2919 19.1652 20.2919C18.1171 20.2919 17.069 20.1401 16.0209 19.9882C15.422 19.8364 14.9728 19.8364 14.3739 19.6846C13.775 19.5328 13.3258 19.381 12.7269 19.2291C10.6307 18.6219 8.53452 17.5591 6.88751 16.3445C5.98913 15.7373 5.24049 14.9782 4.64158 14.3709L4.34213 14.0672L4.1924 13.9154L4.04267 13.7636C3.89295 13.6118 3.74321 13.3081 3.59348 13.1563C3.29403 12.8527 2.99457 12.3972 2.84484 12.0936C2.39566 11.3345 1.94647 10.7272 1.64701 9.96807C1.34755 9.36079 1.0481 8.75351 0.748642 8.29804C0.299457 7.38712 0 6.77984 0 6.77984C0 6.77984 0.149733 7.38712 0.44919 8.29804C0.598918 8.75351 0.748649 9.36079 1.04811 10.1199C1.34756 10.7272 1.64702 11.4863 1.94647 12.3972C2.0962 12.7008 2.24592 13.0045 2.39565 13.3081C2.39565 13.4599 2.54539 13.4599 2.54539 13.6118C2.69512 13.7636 2.84484 14.0672 2.84484 14.2191L2.99457 14.3709L3.14429 14.5227L3.29403 14.8263C3.89295 15.7373 4.64158 16.4964 5.39022 17.4073C7.03723 19.0773 9.13343 20.4437 11.3794 21.5064C11.9783 21.8101 12.5772 21.9619 13.0264 22.2655C13.6253 22.4174 14.2242 22.721 14.8231 22.8728C16.0209 23.1765 17.2188 23.4801 18.2669 23.6319C18.8658 23.7838 19.315 23.7838 19.9139 23.9356C19.7642 24.0874 19.7642 24.2392 19.6144 24.391C17.8177 27.8829 17.5182 32.4375 17.3685 35.0185C17.2188 36.3849 16.9193 37.5994 16.7696 38.6622C16.6199 39.1176 16.6199 39.5731 16.4701 40.0286C16.4701 40.1804 16.3204 40.484 16.3204 40.6359C15.7215 42.7613 14.8231 44.5832 14.0745 46.1014C11.6788 50.3524 9.13343 51.7188 9.13343 51.7188C9.13343 52.0224 7.63615 58.5507 6.58805 62.8017C6.58805 63.1053 6.43833 63.409 6.43833 63.7126C6.43833 63.7126 5.98914 64.7754 5.83941 66.5972C5.53995 68.5709 6.73779 70.2409 7.78589 70.2409H9.88207C11.3794 70.2409 11.9783 68.419 11.2296 67.3563C10.481 66.1417 9.73235 65.6863 10.1815 64.1681L13.6253 54.1479L18.2669 51.8706L21.1117 50.3524C20.962 50.8078 20.8123 51.2633 20.6625 51.5669C20.5128 52.0224 19.9139 53.237 20.2133 53.6924C21.2614 55.2106 23.6571 61.2835 24.5555 62.3462C24.7052 62.8017 25.0047 63.2571 25.1544 64.0162C26.0528 67.0527 27.4003 67.2045 28.2987 67.2045H29.796C31.2932 67.2045 31.5927 65.2308 30.6943 64.3199C29.9457 63.5608 28.5981 62.8017 27.4003 61.1317C26.0528 58.7025 25.1544 55.6661 24.7052 54.7552C24.4057 54.2997 24.5555 53.8443 24.7052 53.5406C25.6036 52.3261 26.3522 52.4779 27.9992 50.9597C32.3413 46.8605 34.5873 42.9132 36.5337 39.4213L37.1327 39.5731C37.8813 39.7249 38.6299 39.4213 38.6299 38.6622C38.6299 38.3585 38.6299 37.9031 38.3305 37.5994C41.7742 38.9658 44.7688 40.6359 46.7153 41.2431C51.0574 42.6095 54.052 43.5205 56.4476 44.1277V46.7087L56.1482 58.7025C56.1482 59.0062 57.1963 63.5608 57.7952 65.5345C57.9449 66.4454 58.5438 70.8482 60.7897 70.8482L62.7362 71H63.6346C64.6827 71 65.2816 70.6964 65.4313 70.0891C65.8805 70.5445 66.3297 70.8482 66.7789 70.8482L69.6237 71C72.1691 71 71.8697 68.8745 70.9713 67.5081C70.3724 66.4454 69.1745 66.1417 68.2762 65.5345L67.2281 62.0426C66.7789 60.2207 66.4794 58.3989 66.7789 56.4252L68.4259 39.4213C69.0248 38.2067 69.3243 36.8403 69.9232 34.7148C70.2226 33.9557 70.5221 33.0448 70.9713 31.9821L71.8696 30.312L72.3188 29.4011L72.9178 28.1866L73.2172 27.4275L74.415 24.9983L77.5593 18.6219C78.1582 17.7109 79.3561 17.4073 80.4042 17.8628C82.5004 18.7737 83.9977 19.5328 86.0938 21.5064C86.6928 21.8101 87.8906 21.6583 88.789 21.3546C88.9387 21.3546 89.0884 21.2028 89.2381 21.2028L89.5376 21.051C89.9868 20.8992 90.1365 20.4437 90.1365 19.9882C90.1365 20.1401 90.2862 20.2919 90.2862 20.4437C90.2862 20.8992 90.1365 21.2028 90.1365 21.6583C89.9868 22.1137 89.9868 22.4174 89.9868 22.8728C89.9868 23.0247 89.9868 23.1765 90.1365 23.1765C90.2862 23.3283 90.5857 23.1765 90.7354 23.1765C90.8852 23.0247 91.0349 23.0247 91.1846 22.8728C91.3343 22.721 91.3343 22.721 91.4841 22.5692C91.4841 22.4174 91.4841 22.4174 91.4841 22.2655C91.4841 21.8101 91.3344 21.5064 91.3344 21.051C91.3344 20.7473 91.1846 20.2919 91.1846 19.9882C91.0349 19.381 90.5857 18.9255 89.9868 18.47C89.8371 18.3182 89.6873 18.1664 89.3879 18.0146C89.0884 17.8627 88.789 17.5591 88.4895 17.4073C87.7409 16.9518 86.9922 16.4964 86.0938 15.8891C85.7944 15.7373 85.4949 15.4336 85.1955 15.2818C84.896 15.13 84.5966 15.13 84.2971 15.13C84.1474 14.9782 83.9977 14.8263 83.9977 14.6745C83.8479 14.3709 83.6982 13.9154 83.8479 13.7636C83.8479 13.6118 83.9977 13.4599 83.9977 13.3081C84.7463 12.549 85.7944 12.2454 86.8425 12.3972L92.6819 14.2191C93.4305 14.3709 94.1792 14.0672 94.9278 13.7636C95.6765 13.4599 96.2754 12.8527 96.8743 12.2454C97.1738 11.9417 97.3235 11.7899 97.6229 11.4863C97.7727 11.1826 97.9224 11.0308 98.0721 10.7272L98.2218 10.4235L98.8208 9.81625ZM62.7362 65.6863L61.6881 62.0426C61.2389 60.3725 61.0892 58.5507 61.3887 56.7289L62.4368 50.0487L62.7362 58.7025C62.7362 59.158 62.8859 59.6134 62.8859 60.0689L64.2335 65.5345C64.2335 65.6863 64.2335 66.1417 64.3832 66.5972C63.934 66.4454 63.3351 66.1417 62.7362 65.6863Z" fill="#CDC1B2"/>
</g>
<defs>
<clipPath id="clip0_44017_21">
<rect width="99" height="71" fill="white"/>
</clipPath>
</defs>
</svg>
