<svg width="97" height="80" viewBox="0 0 97 80" fill="none" xmlns="http://www.w3.org/2000/svg">
<path d="M36.0833 12.9201C38.1397 10.9163 39.3502 8.82612 41.7487 7.13441C43.5795 5.84119 47.8313 3.16079 47.5569 7.28479C41.8953 10.0366 38.2525 14.8072 36.4555 20.8072C42.0795 20.3448 46.8652 17.5629 52.6997 18.6531C59.4403 19.9125 66.4816 27.5402 66.2973 34.5213C66.2447 36.5777 64.6357 38.4122 64.632 39.025C64.632 39.4385 66.3237 41.7505 66.6169 43.0437C67.4515 46.7241 66.0906 48.4798 64.6282 51.6038C72.0717 52.2466 82.6995 53.0323 85.5604 61.2841C86.2521 63.2841 86.8197 67.3179 86.8235 69.4419C86.8348 81.5771 65.241 81.0094 57.32 78.6222C53.805 77.5621 50.5531 75.1561 50.7223 71.1336C49.0381 72.4456 47.8201 74.1223 45.8577 75.0922C36.3051 79.8027 25.2526 69.9908 28.8616 59.9796C33.9066 53.288 39.3464 45.1114 45.0832 39.0137C48.5757 35.2995 51.8614 33.2055 57.2147 34.0439C59.5455 34.4085 60.9741 36.0965 63.1282 36.5814C64.5079 31.0213 59.6959 24.7094 54.7448 22.6192C46.9178 19.3147 41.1397 24.5891 33.6397 24.5891C29.4819 24.5891 25.824 22.7846 21.8804 22.0478C-3.77726 17.2471 -1.10435 59.5623 19.5571 68.3141C22.0797 69.3817 24.5909 69.3404 27.0721 70.1863C28.4593 73.502 24.23 72.8742 22.1624 72.4682C11.1587 70.3066 2.41066 58.0548 0.56105 47.4948C-1.7472 34.3258 2.81291 17.6418 18.9857 18.5591C23.9368 18.841 28.2826 21.0891 33.0796 21.559L32.8503 20.0215C30.6924 19.0064 28.121 19.2696 25.918 18.7658C19.5271 17.3035 15.388 10.7735 15.0309 4.49159C14.7489 -0.448199 15.809 -0.181277 20.4857 0.164583C27.6849 0.694652 35.448 5.10436 36.0871 12.9276L36.0833 12.9201ZM33.4555 16.6756C34.9931 15.8862 33.7675 13.6682 33.354 12.4539C30.9555 5.41264 24.7112 2.95778 17.6699 3.15702C17.8917 9.89754 22.027 17.1042 29.6924 16.2997C30.6059 15.4877 24.4105 11.3862 24.2263 11.0479C23.7451 10.1569 24.5233 9.23589 25.3879 9.15694C28.0195 8.9201 32.4969 14.3035 33.4555 16.6756ZM54.8877 58.7202L55.414 58.7315C59.3801 53.1263 68.5943 45.2768 60.5079 39.0137C51.9478 32.3822 46.102 42.852 41.7073 48.7805C45.8915 51.679 50.2449 54.5361 54.2636 57.6638C54.6208 57.942 54.8238 58.2729 54.8877 58.7202ZM53.6847 60.6676C49.4591 58.412 46.0419 54.7804 42.0645 52.194C39.1397 50.2955 38.7487 52.1639 36.839 54.4308C33.6021 58.2766 29.0834 63.5435 32.6961 68.6975C35.5344 72.7464 41.1848 74.6561 45.4479 71.6749C46.9065 70.6562 52.5907 63.5773 53.3877 61.9608C53.5832 61.5698 53.9478 61.1225 53.6847 60.6676ZM80.2784 58.8744C76.1882 54.9985 64.0304 52.7015 60.132 57.8142C59.9929 58.427 60.6282 58.5849 61.038 58.7691C64.5568 60.3743 71.6958 61.5585 75.8198 62.7728C78.2897 63.4984 81.0378 65.754 82.9589 63.4532C83.0867 62.6224 80.9814 59.5398 80.2822 58.8781L80.2784 58.8744ZM77.7785 65.8818L59.1395 60.9984C57.5343 60.9307 55.9704 64.0134 55.2298 65.3141C55.0944 66.1224 55.4027 65.7653 55.7674 65.9119C61.3876 68.1938 70.0755 68.378 75.9025 66.8216C76.3875 66.6901 77.707 66.4645 77.7747 65.8818H77.7785ZM83.3611 67.4344C82.4514 66.863 78.1055 69.0472 76.6507 69.4419C72.583 70.5396 67.162 70.7088 62.9478 70.378C60.6357 70.1938 55.7749 68.3893 54.2975 68.4946C52.3915 68.6336 53.6208 72.4043 54.5456 73.5208C55.6734 74.8817 59.0004 76.002 60.7335 76.3516C66.1019 77.4305 78.6356 77.5057 82.2897 72.8253C83.0529 71.8479 84.6017 68.2126 83.3649 67.4344H83.3611Z" fill="white"/>
<path d="M77.0304 45.2204C77.4891 42.4197 75.9139 39.8295 73.8274 38.0965C72.7147 37.1679 70.1132 36.4123 70.241 34.901C70.4778 32.1191 76.568 36.3559 77.1846 37.7431L79.6545 41.8408L78.9063 31.7056C77.0267 31.9951 76.5605 33.4123 74.256 33.1905C69.0154 32.683 65.3989 25.4162 65.7523 20.623C66.0756 16.2471 73.4929 19.6907 75.35 21.5516L78.9026 27.1981C79.8161 23.2395 76.553 21.4538 75.2485 18.2772C73.7898 14.7246 74.9026 10.4615 76.8274 7.28108C78.2409 4.94652 79.5229 2.99542 81.9026 5.61192C84.2822 8.22843 86.0905 13.39 85.5792 16.781C85.0905 20.0102 82.3537 22.4501 81.6356 25.6042C80.4477 30.8071 82.1131 35.9724 81.5417 41.0927C83.0116 40.1077 83.38 38.1905 84.5529 36.7845C87.0717 33.7657 92.6656 32.0928 96.5265 32.4988C97.8536 36.7431 95.5415 43.5475 91.5717 45.6791C88.2371 47.4685 85.4176 46.649 81.9702 47.1565C81.5905 48.2091 81.5567 52.8219 80.583 53.1076C78.1507 53.8143 79.2973 48.4685 78.177 47.6339C75.444 47.7467 72.5756 48.273 69.9027 47.4648C69.6094 47.04 70.5079 45.228 70.8312 45.228H77.0304V45.2204ZM78.2748 18.8148C78.4402 19.0178 80.4063 20.4764 80.5905 20.4313C84.583 16.7058 83.2033 11.5479 80.2184 7.66077C77.1921 9.78481 75.8688 15.8712 78.2748 18.8148ZM75.9026 30.1981C76.4515 25.2433 73.1019 21.9087 68.3914 21.1831C68.2448 25.5778 70.9177 30.7808 75.9026 30.1981ZM94.3085 35.0815C89.004 35.7168 84.8086 38.8408 84.5454 44.4686C90.3499 45.1528 94.4137 40.6378 94.3085 35.0815Z" fill="white"/>
<path d="M92.3642 18.6418C94.5146 18.5515 94.4018 20.2696 94.3266 22.1342C94.1687 25.9424 90.5296 32.792 86.2402 32.8296C81.7139 32.8672 81.8681 28.6792 82.9357 25.4011C84.1913 21.5477 88.3304 18.8109 92.3642 18.6455V18.6418ZM91.68 21.5628C87.6124 21.7733 84.4019 25.6943 84.9695 29.7732C89.1048 30.9536 91.7101 24.9612 91.68 21.5628Z" fill="white"/>
<path d="M93.1806 50.1037C92.1355 50.036 91.1806 50.645 90.3648 51.2315C89.3348 51.9721 86.2859 56.3217 85.2934 55.363C84.5453 50.2353 90.8423 47.4909 95.0528 46.8706C95.4588 46.8105 95.6994 46.615 96.0152 47.0812C97.6204 49.7879 92.643 60.1788 89.6919 59.4419C87.0077 58.7728 89.9363 56.9495 90.331 56.4532C91.6994 54.7352 93.1768 52.3443 93.1806 50.1037Z" fill="white"/>
</svg>
