<svg width="356" height="53" viewBox="0 0 356 53" fill="none" xmlns="http://www.w3.org/2000/svg">
<mask id="mask0_42047_1580" style="mask-type:luminance" maskUnits="userSpaceOnUse" x="0" y="0" width="53" height="53">
<path d="M0 0H52.3529V53H0V0Z" fill="white"/>
</mask>
<g mask="url(#mask0_42047_1580)">
<path d="M26.1765 53C40.6333 53 52.3529 41.1355 52.3529 26.5C52.3529 11.8645 40.6333 0 26.1765 0C11.7196 0 0 11.8645 0 26.5C0 41.1355 11.7196 53 26.1765 53Z" fill="#FF5226"/>
<path d="M30.4169 43.1949V14.8222H27.1291C24.7593 14.8222 22.9618 15.331 21.7403 16.3504C20.5187 17.3327 19.9079 18.6418 19.9079 20.2795C19.9079 21.5161 20.1226 22.5708 20.5536 23.4436C20.9846 24.3163 21.6146 25.1166 22.4401 25.8445C23.2672 26.5723 24.3091 27.3726 25.5673 28.2454L28.6927 30.3724L19.531 43.1967H12.6309L21.3633 31.1922L25.4591 34.9022L22.2254 32.8281C20.5994 31.7589 19.0505 30.574 17.5904 29.2824C16.2956 28.1164 15.3078 26.8444 14.6255 25.4629C13.9432 24.0796 13.6011 22.4613 13.6011 20.6063C13.6011 17.4051 14.7337 14.8222 16.9971 12.8577C19.2971 10.8578 22.6564 9.85791 27.075 9.85791H36.8301V43.1949H30.4169Z" fill="white"/>
</g>
<path d="M82.988 53C68.5473 53 56.8115 41.1651 56.8115 26.5477C56.8115 11.9285 68.5473 0 82.988 0C97.4269 0 109.164 11.9285 109.164 26.5477C109.164 41.1651 97.4269 53 82.988 53Z" fill="#FF5226"/>
<path d="M78.9344 3.58643L49.7319 49.7141H63.1186L79.9884 23.1258L79.5766 22.9367L74.8997 41.9637L84.8014 43.7304L94.9788 30.7807L94.4274 30.5034L90.9895 45.2126L112.564 41.0504L108.163 33.7116L100.387 35.5136L101.305 36.5825L104.926 21.2213L96.4901 15.5114L85.4436 29.5741L85.9933 29.8532L90.5306 11.4269L78.9344 3.58643Z" fill="#FFDD00"/>
<path d="M78.9344 3.58643L49.7319 49.7141H63.1186L79.9884 23.1258L79.5766 22.9367L74.8997 41.9637L84.8014 43.7304L94.9788 30.7807L94.4274 30.5034L90.9895 45.2126L99.6627 43.5396L104.926 21.2213L96.4901 15.5114L85.4436 29.5741L85.9933 29.8532L90.5306 11.4269L78.9344 3.58643Z" fill="#FFDD00"/>
<path d="M119.199 43.195L135.476 9.85797H147.871L150.405 30.1552L162.963 9.8562H175.252V43.195H163.233V25.2986L152.075 43.195H140.056L137.741 25.1343L128.9 43.195H119.199ZM212.171 36.5929C212.171 37.7218 212.19 38.8313 212.225 39.9213C212.262 41.0131 212.333 42.0855 212.441 43.1402H201.283C201.018 42.6163 200.802 42.0687 200.638 41.5043C200.418 40.7572 200.273 39.9895 200.206 39.2129C199.056 40.5944 197.601 41.7392 195.84 42.6491C194.116 43.5236 191.654 43.9599 188.457 43.9599C185.223 43.9599 182.635 43.195 180.695 41.6686C178.791 40.1404 177.84 38.1034 177.84 35.5559C177.84 33.1921 178.503 31.3742 179.832 30.1004C181.199 28.7913 183.317 27.8815 186.193 27.3727C189.068 26.825 192.75 26.553 197.242 26.553H200.044V25.9523C200.044 24.7898 199.559 23.8977 198.589 23.2793C197.618 22.661 195.804 22.3518 193.146 22.3518C190.523 22.3518 188.08 22.6981 185.815 23.3889C183.588 24.0425 181.773 24.698 180.372 25.3534V18.0412C181.953 17.4582 184.073 16.8769 186.733 16.2957C189.427 15.6774 192.498 15.3682 195.948 15.3682C199.433 15.3682 202.379 15.695 204.787 16.3505C207.196 16.9688 209.028 18.0412 210.284 19.5693C211.543 21.0604 212.171 23.1345 212.171 25.7898V36.5929ZM215.836 16.1879H226.994L227.639 20.8237C229.006 19.0058 230.639 17.679 232.545 16.8416C234.449 16.0042 236.641 15.5873 239.12 15.5873C241.923 15.5873 244.438 16.0961 246.666 17.1137C248.845 18.0903 250.685 19.7064 251.947 21.7529C253.242 23.8252 253.887 26.4452 253.887 29.6093C253.887 32.7734 253.242 35.411 251.947 37.5204C250.69 39.5945 248.93 41.1598 246.666 42.2127C244.401 43.2692 241.815 43.7956 238.904 43.7956C236.82 43.8091 234.753 43.4199 232.814 42.6491C230.945 41.8505 229.329 40.5944 227.964 38.8861V50.2351H215.836V16.1862V16.1879ZM289.028 29.6093C289.028 26.9169 289.747 24.516 291.185 22.4066C292.658 20.2972 294.742 18.6436 297.436 17.4423C300.167 16.2056 303.384 15.5873 307.085 15.5873C310.929 15.5873 314.146 16.2586 316.732 17.6048C319.355 18.951 321.187 20.8608 322.229 23.3341C323.307 25.8074 323.451 28.7366 322.66 32.1197H301.372C301.803 33.6832 302.755 34.8651 304.228 35.6654C305.738 36.4304 307.965 36.812 310.91 36.812C312.959 36.812 314.863 36.63 316.624 36.2643C318.28 35.8938 319.918 35.4392 321.529 34.9022V41.3947C319.983 42.1226 318.259 42.7038 316.355 43.1402C314.486 43.5766 312.025 43.7956 308.971 43.7956C302.251 43.7956 297.239 42.5413 293.934 40.0309C290.664 37.4851 289.028 34.0118 289.028 29.6093ZM323.684 16.1862H354.461V23.1716H344.866V43.1402H332.74V23.1716H323.684V16.1862ZM256.205 16.1862H268.332V28.408L279.813 16.1862H290.269L279.596 27.4257L292.479 43.1402H277.818L268.332 31.2452V43.1402H256.205V16.1862ZM307.139 21.6982C305.485 21.6982 304.174 22.1893 303.204 23.1716C302.234 24.1167 301.605 25.3357 301.317 26.8268H311.989C311.954 25.3357 311.558 24.1167 310.804 23.1698C310.048 22.1893 308.827 21.6982 307.139 21.6982ZM241.492 29.6093C241.492 27.4257 240.899 25.6979 239.712 24.4259C238.564 23.1168 236.909 22.4614 234.754 22.4614C232.779 22.4614 231.124 23.0797 229.796 24.3164C228.467 25.5177 227.802 27.2808 227.802 29.6093C227.802 31.9378 228.447 33.738 229.742 35.0118C231.072 36.2484 232.742 36.8668 234.754 36.8668C236.983 36.8668 238.653 36.2113 239.766 34.9022C240.916 33.5931 241.492 31.8282 241.492 29.6093ZM200.044 31.5173H197.296C194.673 31.5173 192.786 31.7381 191.636 32.1745C190.523 32.6109 189.966 33.4465 189.966 34.6832C189.966 35.7379 190.326 36.5205 191.043 37.0293C191.799 37.5028 192.696 37.7395 193.739 37.7395C195.32 37.7395 196.613 37.448 197.618 36.8668C198.66 36.2484 199.47 35.5382 200.044 34.7379V31.5173Z" fill="black"/>
</svg>
