<svg width="357" height="55" viewBox="0 0 357 55" fill="none" xmlns="http://www.w3.org/2000/svg">
<g clip-path="url(#clip0_42047_1578)">
<path d="M333.177 28.1135C333.177 25.8748 336.25 24.0665 340.224 24.0665C344.199 24.0665 348.645 26.0685 351.503 29.2759L356.701 22.9041C351.739 18.5127 346.733 16.2309 340.46 16.2309C332.64 16.2309 324.563 19.8259 324.563 28.1135C324.563 38.2955 333.307 39.0274 340.46 39.6086C344.456 39.91 348.001 40.1898 348.001 42.816C348.001 45.636 343.962 46.9491 340.417 46.9491C336.293 46.9491 331.803 45.2054 328.559 41.2446L323.016 47.1428C327.442 52.546 333.865 54.9355 340.138 54.9355C348.023 54.9355 356.616 51.1898 356.616 42.6008C356.616 32.9139 347.765 31.9883 340.954 31.2994C336.68 30.8689 333.177 30.4814 333.177 28.0919V28.1135ZM293.649 30.5029C295.067 26.9511 298.118 24.8415 302.651 24.8415C307.183 24.8415 309.89 27.0371 311.072 30.5029H293.671H293.649ZM303.037 16.2309C292.296 16.2309 283.638 24.6047 283.638 35.6693C283.638 46.045 291.265 55 302.543 55C309.353 55 314.853 51.728 318.741 46.1311L312.812 41.1154C310.728 44.3229 306.926 46.2388 302.415 46.2388C297.903 46.2388 293.026 42.773 292.639 37.7143H320.696V34.7006C320.696 24.0235 313.456 16.2309 303.059 16.2309H303.037ZM270.706 53.6438H279.32V17.5441H270.706V53.6438ZM274.981 0C271.479 0 268.514 2.92759 268.514 6.58708C268.514 10.2466 271.393 12.8728 275.131 12.8728C278.869 12.8728 281.447 10.2896 281.447 6.73777C281.447 3.18591 278.525 0.0215264 274.981 0.0215264V0ZM150.423 16.1663C146.384 16.1663 142.732 17.3933 139.639 19.4814V0.387476H131.024V35.6047C131.024 46.3249 139.725 54.9355 150.38 54.9355C161.036 54.9355 169.822 46.3679 169.822 35.4971C169.822 24.6262 161.208 16.1663 150.423 16.1663ZM105.739 16.7476C96.1574 17.7163 88.3372 26.0039 88.3372 35.8415C88.3372 46.2602 97.2317 54.9785 107.629 54.9785C118.027 54.9785 126.921 46.2602 126.921 35.8415C126.921 31.4071 125.31 27.317 122.732 24.1096L103.698 0.430528H92.5696L105.739 16.7476ZM39.1418 38.0802L31.2575 17.5225H25.2209L17.2937 38.0802L9.36651 17.5225H0L13.8564 53.6654H19.8931L28.207 32.1389L36.5638 53.6654H42.6005L56.414 17.5225H47.0689L39.1418 38.0802ZM193.152 16.2309C182.411 16.2309 173.71 24.6047 173.71 35.1741C173.71 45.7437 181.337 55 192.68 55C199.49 55 204.989 51.728 208.878 46.1311L202.175 40.685C200.22 44.1937 196.482 46.2388 192.744 46.2388C187.889 46.2388 183.12 42.773 182.733 37.7143H210.876V35.088C210.876 24.0235 203.593 16.2309 193.174 16.2309H193.152ZM223.916 25.7886V17.5655H215.301V53.6654H223.916V38.4246C223.916 31.0196 231.843 26.499 239.663 26.499V17.5871H238.782C232.165 17.5871 227.353 20.0196 223.916 25.8102V25.7886ZM251.242 25.7886V17.5655H242.627V53.6654H251.242V38.4246C251.242 31.0196 259.169 26.499 266.989 26.499V17.5871H266.108C259.492 17.5871 254.68 20.0196 251.242 25.8102V25.7886ZM75.2974 53.6438H83.9121V0.430528H75.2974V53.6223V53.6438ZM107.672 46.3464C101.742 46.3464 96.9306 41.5675 96.9306 35.6263C96.9306 29.685 101.742 24.863 107.629 24.863C113.516 24.863 118.478 29.6419 118.478 35.6263C118.478 41.6106 113.623 46.3464 107.694 46.3464H107.672ZM150.359 46.3464C144.516 46.3464 139.617 41.6751 139.617 35.5832C139.617 29.4912 144.236 24.863 150.402 24.863C156.567 24.863 161.186 29.685 161.186 35.5832C161.186 41.4814 156.266 46.3464 150.337 46.3464H150.359ZM60.4098 53.6438H69.0244V17.5441H60.4098V53.6438ZM64.6205 0C61.1187 0 58.1971 2.92759 58.1971 6.63014C58.1971 10.3327 61.2692 12.9159 64.6205 12.9159C68.3585 12.9159 71.1942 9.79455 71.1942 6.4364C71.1942 3.07828 68.2296 0 64.6205 0ZM183.721 30.5029C185.182 26.9511 188.19 24.8415 192.658 24.8415C197.127 24.8415 200.049 27.0371 201.208 30.5029H183.7H183.721Z" fill="#7F30E3"/>
</g>
<defs>
<clipPath id="clip0_42047_1578">
<rect width="357" height="55" fill="white"/>
</clipPath>
</defs>
</svg>
