<svg width="22" height="18" viewBox="0 0 22 18" fill="none" xmlns="http://www.w3.org/2000/svg">
<path fill-rule="evenodd" clip-rule="evenodd" d="M1.51989 7.77825C7.41718 5.21674 11.3592 3.56113 13.346 2.74894C18.9595 0.437332 20.1263 0.031238 20.8832 0C21.0408 0 21.4193 0.0312382 21.6716 0.218666C21.8608 0.374856 21.9239 0.593522 21.9554 0.749712C21.9869 0.905901 22.0185 1.24952 21.9869 1.53066C21.6716 4.68569 20.3786 12.4015 19.6848 15.9314C19.401 17.4308 18.8333 17.9306 18.2972 17.9931C17.1303 18.0868 16.2158 17.2121 15.0805 16.4936C13.3145 15.3378 12.3053 14.6194 10.5708 13.4948C8.58402 12.1828 9.87701 11.4643 11.0123 10.3085C11.2961 9.99615 16.4996 5.34169 16.5942 4.90436C16.5942 4.84188 16.6258 4.65446 16.4996 4.56074C16.3735 4.46703 16.2158 4.49827 16.0897 4.5295C15.9004 4.56074 13.0622 6.43502 7.54332 10.1211C6.72338 10.6834 5.99804 10.9333 5.33578 10.9333C4.61045 10.9333 3.22285 10.5272 2.18215 10.1836C0.920703 9.77748 -0.0884581 9.55882 0.00615074 8.87158C0.0692233 8.52796 0.573803 8.15311 1.51989 7.77825Z" fill="white"/>
</svg>
