<svg width="24" height="14" viewBox="0 0 24 14" fill="none" xmlns="http://www.w3.org/2000/svg">
<path fill-rule="evenodd" clip-rule="evenodd" d="M3.42708 0H0.875C0.145833 0 0 0.342708 0 0.721875C0 1.39781 0.864791 4.75052 4.02865 9.18458C6.1374 12.2128 9.10875 13.8542 11.8125 13.8542C13.4349 13.8542 13.6354 13.4896 13.6354 12.8618V10.5729C13.6354 9.84375 13.7885 9.69792 14.3026 9.69792C14.6818 9.69792 15.3307 9.8875 16.8445 11.3473C18.5748 13.0776 18.8599 13.8542 19.8333 13.8542H22.3854C23.1146 13.8542 23.4792 13.4896 23.2684 12.7699C23.0387 12.0531 22.2126 11.0126 21.1159 9.77958C20.5209 9.07667 19.6284 8.31906 19.3586 7.94062C18.9795 7.45427 19.0889 7.23771 19.3586 6.80531C19.3586 6.80531 22.4678 2.42521 22.793 0.938438C22.9549 0.397396 22.793 0 22.0201 0H19.4688C18.8198 0 18.5208 0.342708 18.359 0.721875C18.359 0.721875 17.061 3.885 15.2228 5.93979C14.6278 6.53479 14.3573 6.72438 14.0328 6.72438C13.8709 6.72438 13.6361 6.53479 13.6361 5.99448V0.938438C13.6361 0.28948 13.4473 0 12.907 0H8.89656C8.49115 0 8.2476 0.301146 8.2476 0.586979C8.2476 1.20167 9.16635 1.34385 9.26114 3.07344V6.83229C9.26114 7.65625 9.1124 7.80573 8.78719 7.80573C7.9224 7.80573 5.81802 4.62802 4.56969 0.992396C4.32469 0.284375 4.07896 0 3.42708 0Z" fill="white"/>
</svg>
