<svg width="134" height="70" viewBox="0 0 134 70" fill="none" xmlns="http://www.w3.org/2000/svg">
<path d="M86.9395 17.4428L104.423 26.6763C108.867 22.7571 113.763 19.2098 119.27 16.9446C121.655 15.9614 133.1 11.6768 133.413 15.802C133.559 17.7284 127.919 26.5435 126.896 29.8848C123.933 39.5634 126.85 46.2727 127.308 55.8317C125.926 58.0172 116.706 53.9717 114.773 52.9753C110.727 50.8828 107.134 47.8205 104.536 44.0739C97.0499 48.8767 89.1515 52.7694 80.9809 56.2635C87.4111 63.471 93.0509 71.1567 77.9849 69.8547C67.7948 68.9779 62.7861 64.0024 54.8679 61.7903C50.6431 60.6079 44.6446 61.219 39.6957 60.3754C27.712 58.3493 12.759 51.1551 4.23626 42.4265C-1.94157 36.1025 -1.07798 34.5879 4.98028 28.709C12.3405 21.568 25.2542 14.3672 35.1918 11.8163C39.9946 10.5808 46.2987 10.7468 50.4371 9.15254C53.2537 8.06976 56.3094 5.07385 59.498 3.61907C66.6988 0.330871 74.7499 -0.446337 82.615 0.217946C87.451 0.623158 97.1694 2.23072 93.3963 8.99312L86.9461 17.4494L86.9395 17.4428ZM57.7376 10.149C65.6559 10.6339 73.9195 12.5404 81.313 15.4499L89.5767 7.16634C80.7683 2.54957 65.7754 4.00435 57.7443 10.149H57.7376ZM126.743 19.4489C121.11 20.4387 115.723 23.3616 111.166 26.7561C109.14 28.264 107.306 31.7714 104.516 31.7581C103.321 31.7581 89.1117 23.335 86.056 21.9799C64.1745 12.3079 42.7713 10.5475 21.2353 22.4183C18.5183 23.9195 4.64148 33.3457 4.63484 35.6973C4.63484 38.4275 18.9169 48.1991 21.8796 49.6605C42.5455 59.8705 65.0912 58.1168 85.8434 49.2022C89.2047 47.7607 103.008 39.4239 104.583 39.3376C107.167 39.1914 107.718 41.8751 109.067 43.0907C112.76 46.4454 117.078 49.7269 122.1 50.6171C119.881 39.4505 121.07 29.3799 126.75 19.4489H126.743ZM77.5133 58.0571C75.846 57.0739 65.5961 60.4352 63.0519 60.9002C64.8919 63.3779 80.4162 66.2676 81.6252 65.2114C81.2997 64.1086 77.872 58.263 77.52 58.0571H77.5133Z" fill="white"/>
<path d="M38.9584 50.4112C37.8225 51.3612 35.5639 52.3111 34.4878 50.8762C38.3207 42.7853 43.057 37.7965 40.0345 28.191C39.6692 27.0218 34.8664 18.9508 40.8516 22.7306C48.285 27.4204 45.1827 45.2232 38.9584 50.4112Z" fill="white"/>
<path d="M23.7265 27.5002C28.8216 26.4839 30.8942 36.0828 24.8292 36.6873C18.7643 37.2918 18.1598 28.6162 23.7265 27.5002Z" fill="white"/>
</svg>
