<svg width="113" height="80" viewBox="0 0 113 80" fill="none" xmlns="http://www.w3.org/2000/svg">
<path d="M55.5022 0.0536695C56.9869 -0.203164 58.5877 0.518073 59.9915 1.0247C70.9509 4.96164 81.6254 10.4044 93.1055 13.2648C94.3509 13.979 94.5093 14.5841 94.6324 15.9562C96.8278 40.183 85.1049 70.806 60.5052 79.2357C55.7731 80.8577 53.7008 79.6826 49.3734 77.7229C29.5655 68.7478 19.0353 46.7973 17.9552 25.832C17.8532 23.8512 17.6737 15.8014 18.2332 14.4821C18.3809 14.1338 18.7187 13.7397 19.0283 13.5216C20.3512 12.5787 27.064 11.0729 29.2031 10.3376C38.1149 7.2837 46.8719 3.82172 55.4987 0.0571805L55.5022 0.0536695ZM20.8296 15.8436C19.644 35.6691 25.7095 56.9264 41.7071 69.564C44.7328 71.9565 52.5222 76.7061 56.2059 77.2268C58.2183 77.5118 62.7076 75.2531 64.6145 74.2011C81.8822 64.649 90.9664 44.6653 91.8178 25.4766C91.9269 23.0631 92.0922 18.9362 91.8178 16.6528C91.7721 16.2658 91.8108 15.8823 91.4554 15.6079C79.6973 11.8645 68.066 7.81848 56.7899 2.79791C53.8381 3.30806 51.2803 5.04257 48.5466 6.12268C39.4413 9.72186 30.1706 12.92 20.8261 15.8436H20.8296Z" fill="white"/>
<path d="M15.4723 10.2039L15.4617 11.5302C12.2214 12.2233 10.8387 12.832 9.46657 15.9034C9.00568 16.9378 8.2985 21.3497 6.951 18.2114C5.88144 15.724 6.00811 13.9332 3.09147 12.5681C2.40188 12.2444 0.178322 11.875 0.0411091 11.3965C-0.377565 9.91536 2.51797 9.69723 3.45031 9.18708C5.58239 8.02253 6.62029 4.68018 7.07415 2.43905C8.42165 1.49263 9.5686 5.9749 10.1667 6.90021C11.4122 8.82821 13.203 9.89073 15.4723 10.2039ZM10.9372 10.5275C9.23085 10.1229 8.63626 8.36028 7.9502 7.00927C7.16914 8.23363 7.03897 9.20115 5.84276 10.1863C5.25872 10.6683 4.34045 10.1933 4.61136 11.2206C5.86738 11.4106 7.1445 12.4415 7.42948 13.6834H7.94668L10.9372 10.5275Z" fill="white"/>
<path d="M98.5348 38.5928V37.2804C100.217 36.802 102.007 36.0877 103.056 34.5995C103.819 33.5159 104.702 28.5938 106.293 31.3592C107.39 33.2626 107.084 35.0076 109.607 36.4783C110.247 36.8512 112.421 37.2593 112.541 37.766C112.777 38.7581 110.061 39.1592 109.406 39.5462C107.151 40.8691 106.863 43.6415 105.684 45.668C104.688 45.9037 104.46 43.5711 104.175 42.966C102.845 40.1619 101.546 39.3668 98.5312 38.5928H98.5348ZM107.974 37.5936C106.542 37.3473 106.05 35.8133 105.343 34.7754L102.711 37.7624L105.687 40.3976L107.974 38.1108V37.5936Z" fill="white"/>
<path d="M56.2068 7.77277L87.0444 19.3232C87.829 20.2626 87.6355 22.465 87.6003 23.7211C87.0866 42.097 77.9075 63.8715 60.0452 71.3901C57.6211 72.4104 56.826 73.1105 54.1873 72.1992C35.9978 65.9332 23.6628 39.4759 25.3339 21.2266C25.4852 19.5801 25.6787 19.2001 27.2162 18.5387C32.3916 16.3046 38.9813 14.5912 44.4241 12.5435C48.3892 11.0518 52.2206 9.22229 56.2033 7.77629L56.2068 7.77277ZM28.2119 21.114C27.6067 38.4591 35.0725 58.3056 50.56 67.3933C53.167 68.9202 55.4222 70.412 58.3951 69.3882C64.9602 67.1294 73.0839 58.6856 76.6163 52.8066C82.1962 43.5219 84.8912 31.8307 84.6098 21.0507C75.0717 17.937 65.6674 14.461 56.4073 10.6085L28.2119 21.114Z" fill="white"/>
<path d="M63.3239 31.9608H72.6403C73.5797 31.9608 73.7978 33.5264 73.8646 34.2477C74.0194 35.8591 74.0863 43.7892 73.4812 44.7532C73.3228 45.003 72.4785 45.668 72.2885 45.668H62.9721C63.1621 46.7516 63.338 47.8739 63.3309 48.9857C63.3239 50.3156 63.4541 54.7662 62.2684 55.3362C61.709 55.6036 52.178 55.695 51.1999 55.5015C50.6124 55.3854 49.6097 54.3827 49.6097 53.9254V45.6645H40.6451C40.4411 45.6645 39.843 45.2704 39.5263 45.2071C39.3961 45.098 39.0654 44.5351 39.0654 44.4331V32.4815L39.5932 31.9538H49.6132V24.0447C49.6132 23.2355 50.6792 22.2715 51.5658 22.1449C53.5361 21.8634 59.0351 21.874 61.0441 22.1062C61.505 22.1589 62.0362 22.2187 62.4197 22.4897C63.9748 23.5979 62.5569 31.9538 63.3239 31.9538V31.9608ZM60.8611 24.9313C60.5163 25.0439 60.0976 24.5795 59.9815 24.5795H52.5967L52.0689 25.1072V34.2442L51.5412 34.7719H41.5212V43.2087H52.0689V52.6975C54.8202 52.8417 58.3456 53.7213 60.8576 52.5216V43.2087H70.8776L71.4054 42.681V34.7719H61.3853L60.8576 34.2442V24.9313H60.8611Z" fill="white"/>
</svg>
