<svg width="66" height="66" viewBox="0 0 66 66" fill="none" xmlns="http://www.w3.org/2000/svg">
<g clip-path="url(#clip0_44017_29)">
<path d="M32.6 65.2C14.6327 65.2 0 50.5672 0 32.6C0 14.6327 14.6327 0 32.6 0C50.5672 0 65.2 14.6327 65.2 32.6C65.1607 50.5672 50.5672 65.2 32.6 65.2ZM32.6 6.90445C18.438 6.90445 6.94368 18.438 6.94368 32.5608C6.94368 46.7227 18.4772 58.2171 32.6 58.2171C46.762 58.2171 58.2563 46.6835 58.2563 32.5608C58.2563 18.438 46.7227 6.90445 32.6 6.90445Z" fill="#CDC1B2"/>
<path d="M37.4646 32.6L45.036 25.0286C46.3698 23.6948 46.3698 21.4979 45.036 20.1249C43.7022 18.7911 41.5053 18.7911 40.1322 20.1249L32.5609 27.6962L24.9895 20.1249C23.6557 18.7911 21.4589 18.7911 20.0858 20.1249C18.752 21.4587 18.752 23.6556 20.0858 25.0286L27.6572 32.6L20.0858 40.1713C18.752 41.5051 18.752 43.702 20.0858 45.075C20.7527 45.7419 21.655 46.095 22.5181 46.095C23.4203 46.095 24.2834 45.7419 24.9503 45.075L32.5217 37.5037L40.093 45.075C40.7599 45.7419 41.6622 46.095 42.5253 46.095C43.3883 46.095 44.2906 45.7419 44.9575 45.075C46.2913 43.7412 46.2913 41.5444 44.9575 40.1713L37.4646 32.6Z" fill="#CDC1B2"/>
</g>
<defs>
<clipPath id="clip0_44017_29">
<rect width="66" height="66" fill="white"/>
</clipPath>
</defs>
</svg>
