<svg width="29" height="29" viewBox="0 0 29 29" fill="none" xmlns="http://www.w3.org/2000/svg">
<path d="M25.0727 3.927L17.8179 11.1818M18.5658 3.927H25.0727V10.4339M12.059 25.0728C14.2159 25.0728 16.2845 24.216 17.8096 22.6908C19.3348 21.1657 20.1916 19.0971 20.1916 16.9401C20.1916 14.7832 19.3348 12.7146 17.8096 11.1895C16.2845 9.66429 14.2159 8.80746 12.059 8.80746C9.90203 8.80746 7.83345 9.66429 6.30828 11.1895C4.7831 12.7146 3.92627 14.7832 3.92627 16.9401C3.92627 19.0971 4.7831 21.1657 6.30828 22.6908C7.83345 24.216 9.90203 25.0728 12.059 25.0728Z" stroke="#144534" stroke-width="2" stroke-linecap="round" stroke-linejoin="round"/>
</svg>
