<svg width="19" height="18" viewBox="0 0 19 18" fill="none" xmlns="http://www.w3.org/2000/svg">
<path d="M11.75 6.751L11.01 6.628C10.9921 6.73544 10.9979 6.84548 11.0269 6.95046C11.0558 7.05545 11.1073 7.15288 11.1777 7.23596C11.2482 7.31904 11.3358 7.38578 11.4347 7.43155C11.5335 7.47732 11.6411 7.50102 11.75 7.501V6.751ZM0.75 6.751V6.001C0.551088 6.001 0.360322 6.08002 0.21967 6.22067C0.0790175 6.36132 0 6.55209 0 6.751H0.75ZM2.75 17.501H14.11V16.001H2.75V17.501ZM15.31 6.001H11.75V7.501H15.31V6.001ZM12.49 6.874L13.296 2.039L11.816 1.792L11.01 6.628L12.49 6.874ZM11.57 0.000999928H11.356V1.501H11.569L11.57 0.000999928ZM8.235 1.671L5.72 5.444L6.968 6.276L9.483 2.503L8.235 1.671ZM4.68 6.001H0.75V7.501H4.68V6.001ZM0 6.751V14.751H1.5V6.751H0ZM16.807 15.291L18.007 9.291L16.537 8.996L15.337 14.996L16.807 15.291ZM5.72 5.444C5.6059 5.61528 5.45127 5.75475 5.26985 5.85191C5.08842 5.94908 4.88581 5.99995 4.68 6V7.5C5.6 7.5 6.458 7.041 6.968 6.276L5.72 5.444ZM13.296 2.039C13.3377 1.78837 13.3243 1.53067 13.2567 1.28574C13.1892 1.04082 13.0691 0.813533 12.9049 0.61969C12.7406 0.425848 12.5361 0.270094 12.3056 0.163253C12.0751 0.0564111 11.8241 0.00104429 11.57 0.000999928L11.569 1.501C11.6052 1.50109 11.642 1.50906 11.6749 1.52436C11.7078 1.53966 11.7369 1.56192 11.7603 1.5896C11.7837 1.61728 11.8008 1.64972 11.8104 1.68467C11.82 1.71962 11.8219 1.75624 11.816 1.792L13.296 2.039ZM15.31 7.5C16.1 7.5 16.69 8.222 16.536 8.995L18.007 9.29C18.0866 8.89109 18.0767 8.4785 17.978 8.08389C17.8793 7.68927 17.6943 7.32146 17.4364 7.00696C17.1784 6.69246 16.8539 6.4391 16.4862 6.26515C16.1185 6.0912 15.7168 6.00098 15.31 6.001V7.5ZM14.11 17.501C14.7457 17.5011 15.3618 17.28 15.8535 16.8771C16.3452 16.4742 16.6822 15.9133 16.807 15.29L15.337 14.995C15.2803 15.2786 15.127 15.5338 14.9033 15.717C14.6796 15.9003 14.3992 16.0013 14.11 16.001V17.501ZM11.356 0.000999928C10.7387 0.00104478 10.1309 0.152495 9.58662 0.44382C9.04235 0.735145 8.57841 1.15633 8.236 1.67L9.483 2.503C9.68854 2.19466 9.96706 1.94086 10.2938 1.76606C10.6206 1.59125 10.9854 1.50086 11.356 1.501V0.000999928ZM2.75 16.001C2.06 16.001 1.5 15.441 1.5 14.751H0C0 15.4803 0.289731 16.1798 0.805456 16.6955C1.32118 17.2113 2.02065 17.501 2.75 17.501V16.001Z" fill="black"/>
<path d="M4.75 6.75101V16.751" stroke="black" stroke-width="1.5"/>
</svg>
