<svg width="100" height="103" viewBox="0 0 100 103" fill="none" xmlns="http://www.w3.org/2000/svg">
<g clip-path="url(#clip0_44017_23)">
<path d="M81.4001 95.0667L76.7402 94.9119C74.8763 94.4474 73.6337 93.054 72.857 91.8155C72.857 91.8155 72.857 91.8155 72.7017 91.6606C71.6144 90.7317 66.9545 86.0871 64.7798 84.384L56.0814 70.6049C53.9068 71.8435 51.7321 72.9272 49.4022 73.7013C50.3342 75.4044 50.9555 77.4171 50.9555 79.5846C50.9555 83.6099 48.9362 87.016 45.9849 89.3383C46.4509 89.4931 46.9169 89.648 47.3829 89.9576L49.5575 89.3383C53.9068 88.719 55.1494 93.8281 52.6641 95.0667C52.6641 95.0667 48.4702 95.0667 46.9169 95.0667H26.4134H22.8408H21.4428C20.3555 95.0667 19.2682 94.6022 18.4916 93.8281C18.3362 93.6733 18.1809 93.5185 18.0256 93.3637C17.5596 92.7444 17.2489 91.9703 17.2489 91.1962C16.0063 91.8155 14.6083 92.2799 13.3657 92.7444C11.9677 93.2089 9.3271 94.2926 9.3271 94.2926C9.3271 94.2926 8.08445 96.6149 20.5108 97.389C21.4428 97.389 26.1027 97.2342 30.2966 98.0083C32.9372 98.4728 35.4225 99.4017 36.5098 100.795C37.4418 101.724 28.8987 102.808 20.3555 102.963C13.987 103.117 7.61847 102.808 5.13319 101.724C2.33726 100.485 0.628634 98.6276 0.162644 96.4601C-0.614005 93.054 1.40528 90.1124 5.90984 87.7901C6.06517 87.7901 6.06517 87.6353 6.2205 87.6353C6.37583 87.6353 6.37582 87.6353 6.53115 87.4805H6.68649C6.84182 87.4805 6.99716 87.4805 7.15249 87.3256C7.15249 87.3256 7.15247 87.3256 7.3078 87.3256C8.8611 87.016 11.5017 86.7063 13.8317 86.3967L15.385 80.5135C17.2489 72.3079 20.6662 64.7217 25.4814 57.7547L31.5393 48.9299C35.8885 42.5822 41.325 37.0086 47.6936 32.5188L51.8875 29.5772L65.5565 16.1077L65.8672 15.7981L68.0418 13.9402L68.1971 13.7854L72.5463 10.0697C72.5463 9.91485 72.7017 9.76003 73.0123 9.76003C73.1677 9.60521 73.323 9.60521 73.323 9.45039C76.1189 6.97324 77.5169 2.01895 79.0702 0.470738C79.5362 0.00627282 79.8468 -0.148548 80.3128 0.161095C80.6235 0.935202 80.9341 1.70931 81.0895 2.48342C82.0214 1.09002 82.9534 0.315916 83.7301 0.935203C84.8174 4.03163 84.5067 7.12806 83.4194 10.3793C83.7301 10.5341 84.0407 10.689 84.3514 10.9986C85.9047 12.0824 87.1473 13.4757 87.7687 15.1788C87.7687 15.3336 87.924 15.4884 87.924 15.6433L88.5453 17.1915L99.4184 24.3133C100.04 24.7777 100.195 25.7067 99.729 26.3259L99.4184 26.7904L98.7971 27.5645C97.5544 29.1127 95.5351 29.8868 93.6712 29.5772L85.1281 28.3386C84.5067 28.3386 83.8854 28.6483 83.7301 29.1127C83.4194 29.732 83.7301 30.5061 84.3514 30.8158L85.4387 31.2802C86.06 31.2802 86.8367 31.435 87.458 31.5899C87.924 31.7447 88.39 31.7447 88.7006 31.8995C89.0113 32.0543 89.4773 32.2092 89.7879 32.364L90.2539 31.8995V32.6736C90.7199 32.9833 91.1859 33.2929 91.8072 33.7574C92.5839 34.5315 92.8945 34.6863 92.8945 35.7701C93.0499 36.8538 93.5159 38.0924 93.2052 39.1761C92.8945 39.9502 92.1179 40.2599 91.8072 39.7954C91.4966 39.331 91.8072 35.9249 91.4966 35.1508C91.3413 34.8411 91.3412 34.6863 91.1859 34.5315C91.1859 34.6863 91.1859 34.9959 90.8753 35.1508C90.7199 35.3056 90.4093 35.4604 90.0986 35.6152C90.0986 35.6152 89.9433 35.6152 89.9433 35.7701C89.9433 35.7701 89.7879 35.7701 89.7879 35.9249C89.6326 35.9249 89.4773 36.0797 89.322 36.0797H89.1666C88.856 36.0797 88.5453 36.0797 88.39 36.0797H88.2346C87.924 36.0797 87.6133 36.0797 87.3027 35.9249L79.6915 32.6736C79.6915 32.6736 79.5362 32.6736 79.3809 32.6736C78.4489 33.1381 76.2742 36.3893 74.8763 39.7954C73.9443 41.8081 73.323 43.9756 73.323 45.369C73.789 49.0847 73.0123 52.9552 70.993 56.2065L70.8377 56.3613C70.5271 56.9806 70.0611 57.4451 69.7504 58.0644L76.2743 78.6556C76.7402 80.2038 81.4001 86.3967 83.1088 88.719C83.8854 89.9576 87.7687 90.1124 89.1666 91.5058C90.5646 92.8992 91.1859 95.0667 86.8367 95.0667L83.2641 94.9119C82.4874 95.0667 82.0215 95.0667 81.4001 95.0667Z" fill="#CDC1B2"/>
</g>
<defs>
<clipPath id="clip0_44017_23">
<rect width="100" height="103" fill="white"/>
</clipPath>
</defs>
</svg>
