<svg width="96" height="48" viewBox="0 0 96 48" fill="none" xmlns="http://www.w3.org/2000/svg">
<g clip-path="url(#clip0_44017_18)">
<path d="M94.453 7.03672C92.5809 5.84196 90.1983 5.15924 87.4754 4.81788C85.6033 4.47652 84.5822 3.96448 83.0506 2.76972L82.1996 1.91631C81.5189 1.23359 79.3065 0.550874 78.4555 0.550874L74.2009 0.0388273C72.3289 -0.131853 70.7972 0.209509 68.5848 2.08699C67.7339 2.59903 67.0531 3.28176 67.0531 3.28176C65.6916 4.30584 63.8196 9.42625 64.16 10.9624C64.3301 11.8158 64.6705 12.6692 65.0109 13.1812C64.5003 14.7173 64.16 16.0828 63.6494 17.1069C63.4792 17.4482 63.309 17.6189 63.309 17.7896L52.247 20.1791L29.4421 20.5205H26.8893L23.9962 20.3498C22.9751 20.3498 22.1241 20.5205 21.2732 20.6912H21.103C20.5925 20.6912 20.2521 20.8618 19.7415 21.0325C17.3589 21.7152 15.1465 23.0807 13.785 25.2995C12.4235 27.5184 11.5726 29.9079 10.2111 32.1267C8.84965 34.1749 7.31798 36.2231 5.27575 37.7592C3.5739 39.1246 1.87204 40.1487 0 41.0021C0.850928 40.8314 1.53167 40.4901 2.3826 40.1487C7.14779 38.2712 10.7217 34.6869 13.4447 30.4199C14.2956 29.2252 14.9763 27.8597 15.9974 26.665C15.8273 27.5184 15.4869 28.2011 15.3167 29.2252L13.9552 34.6869L11.0621 35.711V36.3937L10.5515 40.8314V41.5142L10.2111 43.9037C10.2111 43.9037 10.5515 47.488 12.5937 47.488L14.9763 47.6586C17.1887 47.6586 16.8484 46.2932 16.1676 45.4398C15.6571 44.7571 14.8061 44.5864 14.1254 44.0744L14.8061 40.3194L14.2956 39.978L15.3167 39.6367C15.3167 40.3194 15.3167 41.0021 15.4869 41.5142C15.4869 42.1969 15.6571 42.7089 15.6571 43.3916C15.6571 43.733 15.6571 43.9037 15.8273 44.245C15.8273 44.245 15.8273 44.245 15.8273 44.4157C15.8273 44.5864 15.8273 44.5864 15.8273 44.7571C15.9974 45.7812 16.6782 47.8293 18.2099 47.8293L20.5925 48C22.8049 48 22.4645 46.6346 21.7838 45.7812C21.2732 45.0984 20.2521 44.7571 19.5713 44.4157V43.0503V40.4901C22.2943 39.466 25.8682 37.7592 28.421 35.5403L48.3327 38.6126C49.524 38.7833 50.7153 38.9539 51.9066 38.9539L61.6072 39.2953C61.7774 40.8314 62.1177 43.0503 62.2879 44.245C62.2879 44.5864 62.4581 44.9278 62.4581 44.9278C62.6283 45.9518 63.1388 47.6586 64.8407 47.6586L67.7339 47.8293C68.2444 47.8293 68.5848 47.8293 68.755 47.6586H68.9252L71.8183 47.8293C74.2009 47.8293 73.8605 46.4639 73.0096 45.7812C72.1587 44.9278 70.4568 44.7571 69.9463 44.0744L69.0953 42.7089L68.755 42.1969C68.4146 41.3435 68.0742 40.3194 68.2444 39.466C69.0953 39.2953 69.9463 38.9539 70.627 38.4419C71.3078 37.9299 71.9885 37.4178 72.6692 36.7351L72.8394 36.5644C73.1798 36.2231 73.6904 35.8817 74.0307 35.5403C74.0307 35.5403 74.0307 35.5403 74.2009 35.3697C74.7115 34.8576 75.0518 34.3456 75.3922 33.8335C75.5624 33.6629 75.5624 33.4922 75.7326 33.3215C76.0729 32.8095 76.5835 32.1267 76.9239 31.444C77.2643 30.5906 77.4344 29.7372 77.4344 28.8838L77.0941 24.4461L76.9239 21.7152C77.0941 21.3739 77.0941 21.2032 77.2642 20.8618C77.7748 19.3257 78.4555 17.9603 78.6257 14.5467V14.376V14.2053V14.0346C78.6257 13.8639 78.6257 13.6933 78.6257 13.6933C78.9661 13.6933 79.3065 13.6933 79.4767 13.6933C79.9872 13.6933 80.4978 13.8639 80.8381 13.8639H81.0083C81.1785 13.8639 81.3487 13.8639 81.5189 13.8639H81.6891C81.8593 13.8639 82.0294 13.8639 82.0294 13.8639H82.1996C82.3698 13.8639 82.54 13.8639 82.54 13.8639H82.7102C82.8804 13.8639 83.0506 13.8639 83.2207 13.6933C83.3909 13.6933 83.3909 13.6933 83.5611 13.5226C83.7313 13.5226 83.9015 13.5226 83.9015 13.3519H84.0717C84.5822 13.3519 85.0928 13.3519 85.6033 13.3519C85.7735 13.3519 85.9437 13.3519 86.1139 13.3519C86.2841 13.3519 86.4543 13.3519 86.7946 13.3519C86.9648 13.3519 86.9648 13.3519 87.135 13.3519C87.3052 13.3519 87.3052 13.3519 87.4754 13.3519C87.6456 13.3519 87.6456 13.3519 87.8158 13.3519C87.9859 13.3519 88.1561 13.3519 88.3263 13.3519C88.4965 13.3519 88.8369 13.3519 89.007 13.3519C89.1772 13.3519 89.3474 13.3519 89.5176 13.3519C89.6878 13.3519 90.0282 13.3519 90.1983 13.3519C90.3685 13.3519 90.5387 13.3519 90.7089 13.3519C90.8791 13.3519 91.0493 13.3519 91.3896 13.1812C91.5598 13.1812 91.73 13.1812 91.73 13.0105C91.9002 13.0105 92.0704 12.8399 92.2406 12.8399C92.4108 12.8399 92.4108 12.8399 92.5809 12.6692C92.7511 12.4985 92.9213 12.4985 93.0915 12.3278C93.2617 12.3278 93.2617 12.1571 93.4319 12.1571C93.6021 11.9865 93.7722 11.8158 93.9424 11.8158L94.1126 11.6451C94.2828 11.4744 94.6232 11.1331 94.7934 10.9624C94.9635 10.7917 94.9635 10.621 95.1337 10.4503C95.3039 10.2797 95.3039 10.109 95.4741 9.93829C95.6443 9.76761 95.6443 9.59693 95.8145 9.42625C96.1548 9.08488 95.9847 8.40216 95.6443 8.0608C95.4741 7.71944 94.9635 7.37809 94.453 7.03672Z" fill="#CDC1B2"/>
</g>
<defs>
<clipPath id="clip0_44017_18">
<rect width="96" height="48" fill="white"/>
</clipPath>
</defs>
</svg>
