<svg width="87" height="80" viewBox="0 0 87 80" fill="none" xmlns="http://www.w3.org/2000/svg">
<path d="M76.7154 16.3804C81.9485 21.2441 85.943 29.9973 86.5659 37.1028C89.2422 67.596 61.103 88.9088 33.1702 73.8396C28.2703 71.1958 22.7475 65.3109 16.9712 66.2018C14.0667 66.6508 13.2518 69.9935 13.1359 72.496C13.0418 74.5313 14.0486 77.385 13.2446 79.1161C12.7485 80.1809 11.2564 80.2714 10.5828 79.4167C10.0794 78.7829 10.1301 71.989 10.2423 70.6852C10.7856 64.362 16.0513 61.4757 21.9363 63.3625C28.5057 65.4702 34.2458 71.9274 42.1769 74.2452C69.1899 82.1365 89.7384 55.6595 81.6479 30.4428C78.5877 20.9037 71.236 12.9508 60.4801 14.1749C56.5761 14.6203 51.6834 17.503 48.3879 17.6696C44.5563 17.8652 41.7641 14.4863 40.8913 11.1255C40.406 9.2532 39.1095 -0.564765 42.2313 0.0255448C44.339 0.423913 43.3937 6.29803 43.5567 8.09793C44.5019 18.4555 51.0678 13.2622 56.9346 11.7158C64.3588 9.7566 71.0948 11.1473 76.719 16.3731L76.7154 16.3804Z" fill="white"/>
<path d="M31.8697 0.431137C33.311 2.23466 32.2826 4.02731 32.3477 5.92862C32.4636 9.14453 32.5578 13.4867 33.2893 16.5578C34.5243 21.7656 38.9606 25.2422 39.522 30.5876C40.2499 37.5409 37.809 45.8632 32.1377 50.2525C25.0649 55.7283 17.0794 48.9669 9.04689 54.6672C1.24251 60.2081 3.86812 70.7504 3.29954 78.9531C2.76355 80.2171 0.985369 80.4126 0.384197 79.1197C-0.144546 77.9898 -0.0322766 66.8862 0.159664 64.9595C0.945534 57.1298 5.63904 51.0058 13.4869 49.3399C21.686 47.6016 27.6905 53.4395 33.4813 44.0018C34.7633 41.9121 36.0634 38.4065 36.3025 35.9692C37.2839 26.0064 31.3409 24.0145 29.8851 15.6198C29.3274 12.4075 28.9399 4.38222 29.5193 1.31117C29.6099 0.836746 29.7366 0.38768 30.2545 0.206604L31.8697 0.431137Z" fill="white"/>
<path d="M27.3604 57.405C26.4622 56.4888 27.23 55.243 28.4758 55.3407C41.6328 59.462 59.027 66.343 71.7421 57.6477C72.557 57.0899 75.3709 54.3195 75.6244 54.2724C76.1785 54.1746 76.8122 55.0112 76.8593 55.5291C77.0259 57.3145 72.2383 60.4869 70.6955 61.3018C58.9762 67.4946 43.0669 63.3588 31.3223 59.0419C30.5473 58.7558 27.737 57.7889 27.3567 57.4014L27.3604 57.405Z" fill="white"/>
<path d="M68.881 49.5391C70.116 48.7496 71.1553 46.095 72.4917 45.7039C73.7157 45.3453 74.8891 46.1602 74.603 47.4603C74.2662 48.9886 69.2939 53.7437 68.4211 55.5906C67.034 56.0795 66.4655 55.989 65.4297 54.9786C64.5895 54.1601 59.9431 48.3005 59.8308 47.5219C59.6244 46.0552 60.7145 45.215 62.1087 45.6242C63.3546 45.99 64.4628 48.8437 65.6253 49.5391V32.3549C65.6253 32.2571 66.7588 31.0512 67.1898 31.1417C67.5591 31.1743 68.881 32.1449 68.881 32.3549V49.5391Z" fill="white"/>
<path d="M51.1465 49.5391C52.5589 48.9596 53.7178 46.0153 55.0215 45.6278C56.8468 45.081 57.2198 46.2688 56.8612 47.8333C56.7562 48.3005 51.6318 55.0728 51.1248 55.4856C50.5888 55.9202 49.9297 56.1918 49.2343 55.9999C48.4014 55.7717 42.0891 47.616 42.1035 46.8193C42.118 45.9646 43.7007 45.1353 44.4032 45.2765C45.2507 45.4431 46.7898 47.9854 47.42 48.7206C47.6445 48.9814 47.4091 49.4051 48.2493 49.1769C47.3294 46.1602 48.2493 42.8899 48.2783 39.9601C48.2927 38.3304 47.3004 32.402 48.6006 31.627C49.3973 31.1526 51.1429 31.7103 51.1429 32.3585V49.5427L51.1465 49.5391Z" fill="white"/>
</svg>
