<svg width="66" height="66" viewBox="0 0 66 66" fill="none" xmlns="http://www.w3.org/2000/svg">
<g clip-path="url(#clip0_44017_25)">
<path d="M32.6 65.2C14.6327 65.2 0 50.5672 0 32.6C0 14.6327 14.6327 0 32.6 0C50.5672 0 65.2 14.6327 65.2 32.6C65.2 50.5672 50.5672 65.2 32.6 65.2ZM32.6 6.90445C18.438 6.90445 6.90445 18.438 6.90445 32.6C6.90445 46.762 18.438 58.2563 32.5608 58.2563C46.7227 58.2563 58.2171 46.7227 58.2171 32.6C58.2563 18.438 46.762 6.90445 32.6 6.90445Z" fill="#CDC1B2"/>
<path d="M49.7827 23.067C48.4489 21.7332 46.2521 21.7332 44.879 23.067L31.0701 36.8759L22.2434 28.01C20.9096 26.6762 18.7127 26.6762 17.3397 28.01C16.0059 29.3438 16.0059 31.5407 17.3397 32.9137L28.6379 44.2119C29.3048 44.8788 30.2071 45.2319 31.0701 45.2319C31.9724 45.2319 32.8355 44.8788 33.5024 44.2119C33.5808 44.1334 33.6201 44.0942 33.6593 44.0158C33.7377 43.9765 33.777 43.8981 33.8554 43.8588L49.7435 27.9708C51.1166 26.5977 51.1166 24.4008 49.7827 23.067Z" fill="#CDC1B2"/>
</g>
<defs>
<clipPath id="clip0_44017_25">
<rect width="66" height="66" fill="white"/>
</clipPath>
</defs>
</svg>
