<svg width="120" height="79" viewBox="0 0 120 79" fill="none" xmlns="http://www.w3.org/2000/svg">
<path d="M103.584 14.363C112.528 13.6394 120.636 22.9299 113.823 30.9311C115.994 32.9186 119.357 34.9062 119.857 38.0964C121.941 51.3467 100.746 56.6927 90.8384 55.648V53.0948C98.228 52.6106 106.79 51.52 112.712 46.6837C118.317 42.1072 118.557 37.3116 111.733 33.9328L111.06 33.841C100.7 40.721 86.2415 42.311 74.5303 38.3156L75.3864 36.2516C85.3649 37.9996 96.2149 37.969 105.46 33.3161C109.669 31.1961 115.805 25.8603 111.748 20.8659C108.166 16.4576 106.596 20.3461 102.911 22.1043C98.2483 24.3263 89.1311 25.8806 84.0246 25.5086C81.874 25.3506 78.6837 24.0969 76.8134 24.1326C74.6169 24.1785 69.3372 27.4656 68.6441 29.6264C67.4872 33.2295 69.9946 33.5658 70.4023 35.11C70.7539 36.4401 66.8909 41.0625 65.357 38.5602C65.1021 37.597 66.2947 36.8427 66.3864 35.9917C66.5291 34.6921 65.1123 33.26 65.0155 31.879C64.6894 27.2719 69.5716 23.3427 73.511 21.9973C69.3626 14.2458 77.2466 9.87322 83.7087 7.9927C88.7336 6.53007 95.7308 6.52498 99.9811 3.37038C102.142 1.76506 103.085 -2.33236 105.725 1.77014C107.569 4.63935 107.534 7.47797 106.066 10.4746C105.291 12.0595 103.926 12.7628 103.584 14.358V14.363ZM103.574 4.68522L98.2382 7.74809C92.3571 10.0159 85.7421 9.60823 80.1158 12.559C74.4895 15.5097 73.2613 19.6326 80.5184 21.3704C87.7755 23.1083 98.1923 21.8903 103.579 16.9163L97.968 16.1518C96.0926 14.3427 99.2523 13.7056 100.266 12.8342C102.718 10.7294 104.94 8.04876 103.574 4.68012V4.68522Z" fill="white"/>
<path d="M32.2315 55.1383C1.6997 60.0919 -4.91017 23.521 3.15214 1.342C4.54343 0.353321 10.3634 2.52434 12.1114 3.14609C34.1222 10.9638 54.9762 32.2153 34.9835 54.3484C35.4829 57.4317 36.3748 60.5047 36.7519 63.6083C36.9201 64.9945 37.975 70.6616 36.0639 70.8145C33.6738 71.0081 34.4076 67.0025 34.2089 65.6418C33.689 62.1202 32.894 58.6191 32.2315 55.1281V55.1383ZM22.8034 52.5902C24.8368 52.9113 28.2054 52.5902 30.4478 52.5902C30.9931 52.5902 31.197 51.5556 31.1256 50.939C30.8147 48.2023 26.9721 39.3755 25.535 36.6083C24.0978 33.841 21.7128 30.2175 19.7049 27.6592C18.1352 25.6614 13.36 22.8534 15.2201 20.453C17.3453 19.9791 21.672 25.6869 22.9716 27.4502C27.7468 33.9378 31.411 42.3518 33.7655 50.042C35.1211 51.2753 38.7242 43.3048 39.0096 42.2957C44.539 22.94 21.8453 8.064 5.5423 4.64439C1.23594 18.5572 1.52133 38.8149 14.1346 48.5132C15.796 49.7872 20.8464 52.2844 22.7983 52.5902H22.8034Z" fill="white"/>
<path d="M57.1116 41.0064C59.4304 40.8688 62.0499 41.3785 64.2311 42.255C65.5408 42.7799 67.931 44.8032 68.2368 44.8643C68.7923 44.9713 71.0601 43.6412 72.2832 43.4679C83.7091 41.8218 89.2844 53.9917 85.1768 63.4963C81.5381 71.9154 70.3263 78.9126 61.0867 78.0156C37.1393 75.6866 36.2372 42.2448 57.1116 41.0115V41.0064ZM71.4729 53.0999C68.1451 53.8491 68.1909 50.5976 66.3664 48.2737C60.1133 40.3184 48.2084 44.5687 45.7163 53.5891C42.0164 66.9924 56.1841 78.3622 68.777 74.1017C72.4718 72.8531 76.8954 69.0309 76.5692 64.8213C80.5086 65.4941 82.6134 63.8276 83.1485 59.934C84.3614 51.0971 79.734 44.793 70.4537 46.9895L71.4729 53.0999Z" fill="white"/>
<path d="M89.3101 65.3309L90.844 57.6916C100.007 58.0942 109.129 55.2862 116.57 50.037C117.885 55.6735 112.666 60.7494 108.008 62.8796C106.418 63.6084 100.761 65.3309 99.2478 65.3309H89.3101Z" fill="white"/>
<path d="M55.7966 58.5834C52.0713 54.8631 61.0509 50.5823 61.0509 56.4124C61.0509 59.2969 57.3816 60.1735 55.7966 58.5834Z" fill="white"/>
<path d="M70.7899 57.7936C74.0872 57.5031 75.5906 63.5473 71.1263 63.6645C67.7169 63.7562 67.6404 58.0688 70.7899 57.7936Z" fill="white"/>
</svg>
